<svg width="960" height="1040" viewBox="0 0 960 1040" fill="none" xmlns="http://www.w3.org/2000/svg">
  <rect width="960" height="1040" fill="#FCFCFB"/>
  <rect x="78" y="74" width="804" height="892" stroke="#D8D3CB" stroke-width="2"/>
  <rect x="118" y="116" width="724" height="808" stroke="#E8E3DC" stroke-width="1.5"/>

  <path d="M172 786H786" stroke="#232222" stroke-width="3" stroke-linecap="round"/>
  <path d="M205 812H754" stroke="#A39A90" stroke-width="1.8" stroke-linecap="round" stroke-dasharray="8 10"/>
  <path d="M228 838H726" stroke="#C7BCAF" stroke-width="1.4" stroke-linecap="round" stroke-dasharray="6 10"/>

  <path d="M252 730V401" stroke="#232222" stroke-width="2.6" stroke-linecap="round"/>
  <path d="M354 730V345" stroke="#232222" stroke-width="2.6" stroke-linecap="round"/>
  <path d="M480 730V284" stroke="#232222" stroke-width="2.8" stroke-linecap="round"/>
  <path d="M606 730V345" stroke="#232222" stroke-width="2.6" stroke-linecap="round"/>
  <path d="M708 730V401" stroke="#232222" stroke-width="2.6" stroke-linecap="round"/>

  <path d="M252 401L354 345L480 284L606 345L708 401" stroke="#232222" stroke-width="3.4" stroke-linecap="round" stroke-linejoin="round"/>
  <path d="M224 468H736" stroke="#232222" stroke-width="2.5" stroke-linecap="round"/>
  <path d="M198 560H762" stroke="#232222" stroke-width="2.5" stroke-linecap="round"/>
  <path d="M172 656H788" stroke="#232222" stroke-width="2.5" stroke-linecap="round"/>

  <rect x="285" y="584" width="80" height="146" stroke="#232222" stroke-width="2.2"/>
  <rect x="404" y="512" width="152" height="218" stroke="#232222" stroke-width="2.2"/>
  <rect x="596" y="584" width="79" height="146" stroke="#232222" stroke-width="2.2"/>

  <path d="M404 566H556" stroke="#232222" stroke-width="1.8" stroke-linecap="round"/>
  <path d="M404 618H556" stroke="#232222" stroke-width="1.8" stroke-linecap="round"/>
  <path d="M404 670H556" stroke="#232222" stroke-width="1.8" stroke-linecap="round"/>
  <path d="M325 584V730" stroke="#232222" stroke-width="1.8" stroke-linecap="round"/>
  <path d="M636 584V730" stroke="#232222" stroke-width="1.8" stroke-linecap="round"/>

  <path d="M171 786L132 810" stroke="#8E877E" stroke-width="1.5" stroke-linecap="round"/>
  <path d="M786 786L825 810" stroke="#8E877E" stroke-width="1.5" stroke-linecap="round"/>

  <path d="M178 260C223 252 262 227 311 200C368 169 423 148 483 147C550 146 602 170 657 201C698 224 741 246 785 251" stroke="#B1A79B" stroke-width="1.8" stroke-linecap="round" stroke-dasharray="5 12"/>
  <path d="M198 309C245 300 291 276 338 253C386 230 435 214 486 214C542 214 592 229 641 252C685 273 728 296 768 305" stroke="#C9BEB2" stroke-width="1.5" stroke-linecap="round" stroke-dasharray="4 10"/>

  <path d="M160 180H267" stroke="#232222" stroke-width="1.6" stroke-linecap="round"/>
  <path d="M160 198H232" stroke="#232222" stroke-width="1.6" stroke-linecap="round"/>
  <path d="M690 170H803" stroke="#232222" stroke-width="1.6" stroke-linecap="round"/>
  <path d="M732 188H803" stroke="#232222" stroke-width="1.6" stroke-linecap="round"/>

  <path d="M131 438V767" stroke="#D7D1C8" stroke-width="1.5" stroke-linecap="round" stroke-dasharray="6 10"/>
  <path d="M828 438V767" stroke="#D7D1C8" stroke-width="1.5" stroke-linecap="round" stroke-dasharray="6 10"/>
  <path d="M480 162V242" stroke="#D7D1C8" stroke-width="1.5" stroke-linecap="round" stroke-dasharray="6 10"/>

  <circle cx="252" cy="401" r="5.5" fill="#232222"/>
  <circle cx="480" cy="284" r="6" fill="#232222"/>
  <circle cx="708" cy="401" r="5.5" fill="#232222"/>

  <path d="M142 891H273" stroke="#232222" stroke-width="1.4" stroke-linecap="round"/>
  <path d="M142 912H214" stroke="#232222" stroke-width="1.4" stroke-linecap="round"/>
  <path d="M647 891H818" stroke="#232222" stroke-width="1.4" stroke-linecap="round"/>
  <path d="M711 912H818" stroke="#232222" stroke-width="1.4" stroke-linecap="round"/>
</svg>
